<svg fill="#000000" xmlns="http://www.w3.org/2000/svg"  viewBox="0 0 48 48" width="25px" height="25px"><path fill="none" stroke="#000000" stroke-miterlimit="10" stroke-width="3" d="M19.5,11.5V10c0-2.485,2.015-4.5,4.5-4.5	s4.5,2.015,4.5,4.5v1.5"/><line x1="7.5" x2="40.5" y1="11.5" y2="11.5" fill="none" stroke="#000000" stroke-linecap="round" stroke-miterlimit="10" stroke-width="3"/><path d="M10,11.5v27c0,3.033,2.467,5.5,5.5,5.5h17c3.033,0,5.5-2.467,5.5-5.5v-27H10z M21,34.5c0,0.828-0.672,1.5-1.5,1.5	S18,35.328,18,34.5v-15c0-0.828,0.672-1.5,1.5-1.5s1.5,0.672,1.5,1.5V34.5z M30,34.5c0,0.828-0.672,1.5-1.5,1.5S27,35.328,27,34.5	v-15c0-0.828,0.672-1.5,1.5-1.5s1.5,0.672,1.5,1.5V34.5z"/></svg>